<?xml version="1.0" encoding="utf-8"?>
<!-- Generator: Adobe Illustrator 14.0.0, SVG Export Plug-In . SVG Version: 6.00 Build 43363)  -->
<!DOCTYPE svg PUBLIC "-//W3C//DTD SVG 1.1//EN" "http://www.w3.org/Graphics/SVG/1.1/DTD/svg11.dtd">
<svg version="1.1" id="Layer_1" xmlns="http://www.w3.org/2000/svg" xmlns:xlink="http://www.w3.org/1999/xlink" x="0px" y="0px"
	 width="80px" height="80px" viewBox="1.25 40 80 80" enable-background="new 1.25 40 80 80" xml:space="preserve">
<g id="Englisch">
	<rect x="13.288" y="59.135" fill="#001E9F" width="55.963" height="41.725"/>
	<path fill="#FF0000" d="M50.632,73.049h-4.475L64.85,59.135h4.4L50.632,73.049z M44.022,59.135h-2.771v25.676h-28v3.211h28v3.209
		h-28v3.211h28v3.209h-28v3.211h30.771V84.076h25.229v-8.148H44.022V59.135z M50.612,86.955l18.639,13.907v-3.315L55.106,86.955
		H50.612z"/>
	<path fill="#FFFFFF" d="M69.251,59.135v5.071L57.364,73.04h11.887v13.915H57.364l11.887,8.833v5.072l0,0v-3.314L55.106,86.954
		h-4.494l18.639,13.906h-6.826L45.88,88.584v12.276h-1.857V84.076h25.229v-8.148H44.022V59.135h1.857V71.41l16.545-12.275h2.425
		L46.157,73.049h4.475L69.251,59.135L69.251,59.135z M14.656,66.931l0.735-0.569l0.734,0.569l-0.28-0.921l0.735-0.569h-0.908
		l-0.28-0.921l-0.281,0.921h-0.909l0.735,0.569L14.656,66.931z M14.656,71.409l0.735-0.567l0.734,0.567l-0.28-0.921l0.735-0.568
		h-0.908l-0.28-0.921l-0.281,0.921h-0.909l0.735,0.568L14.656,71.409z M41.25,94.442h-28v3.209h28V94.442z M39.184,60.04
		l-0.281,0.921h-0.908l0.735,0.569l-0.28,0.921l0.735-0.569l0.734,0.569l-0.28-0.921l0.734-0.569h-0.909L39.184,60.04z
		 M39.184,68.999l-0.281,0.921h-0.908l0.735,0.568l-0.28,0.921l0.735-0.567l0.734,0.567l-0.28-0.921l0.734-0.568h-0.909
		L39.184,68.999z M39.465,78.877l-0.28-0.921l-0.281,0.921h-0.908l0.735,0.569l-0.28,0.922l0.735-0.57l0.734,0.57l-0.28-0.922
		l0.734-0.569H39.465z M39.184,73.478l-0.281,0.921h-0.908l0.735,0.569l-0.28,0.921l0.735-0.569l0.734,0.569l-0.28-0.921
		l0.734-0.569h-0.909L39.184,73.478z M14.656,75.889l0.735-0.569l0.734,0.569l-0.28-0.921l0.735-0.569h-0.908l-0.28-0.921
		l-0.281,0.921h-0.909l0.735,0.569L14.656,75.889z M37.995,76.466h-0.909l-0.28-0.921l-0.281,0.921h-0.909l0.735,0.569l-0.281,0.921
		l0.734-0.569l0.735,0.569l-0.281-0.921L37.995,76.466z M39.184,64.52l-0.281,0.921h-0.908l0.735,0.569l-0.28,0.921l0.735-0.569
		l0.734,0.569l-0.28-0.921l0.734-0.569h-0.909L39.184,64.52z M41.25,81.603h-28v3.209h28V81.603z M41.25,88.022h-28v3.209h28V88.022
		z M34.706,78.877l-0.28-0.921l-0.28,0.921h-0.909l0.736,0.569l-0.281,0.922l0.735-0.57l0.735,0.57l-0.281-0.922l0.735-0.569H34.706
		z M20.429,78.877l-0.28-0.921l-0.28,0.921H18.96l0.735,0.569l-0.281,0.922l0.735-0.57l0.734,0.57l-0.28-0.922l0.734-0.569H20.429z
		 M18.96,76.466h-0.908l-0.28-0.921l-0.28,0.921h-0.909l0.735,0.569l-0.281,0.921l0.735-0.569l0.735,0.569l-0.28-0.921L18.96,76.466
		z M15.673,78.877l-0.28-0.921l-0.281,0.921h-0.909l0.735,0.569l-0.281,0.922l0.735-0.57l0.734,0.57l-0.28-0.922l0.735-0.569H15.673
		z M23.719,76.466H22.81l-0.281-0.921l-0.281,0.921h-0.909l0.735,0.569l-0.281,0.921l0.735-0.569l0.735,0.569l-0.281-0.921
		L23.719,76.466z M25.189,78.877l-0.281-0.921l-0.281,0.921h-0.909l0.735,0.569l-0.28,0.922l0.735-0.57l0.735,0.57l-0.281-0.922
		l0.735-0.569H25.189z M29.948,78.877l-0.281-0.921l-0.281,0.921h-0.908l0.734,0.569l-0.28,0.922l0.734-0.57l0.735,0.57l-0.28-0.922
		l0.735-0.569H29.948z M33.236,76.466h-0.909l-0.281-0.921l-0.279,0.921h-0.909l0.734,0.569l-0.28,0.921l0.734-0.569l0.735,0.569
		L32.5,77.035L33.236,76.466z M28.477,76.466h-0.909l-0.281-0.921l-0.281,0.921h-0.908l0.734,0.569l-0.28,0.921l0.735-0.569
		l0.735,0.569l-0.28-0.921L28.477,76.466z M29.948,69.919l-0.281-0.921l-0.281,0.921h-0.908l0.734,0.568l-0.28,0.921l0.734-0.567
		l0.735,0.567l-0.28-0.921l0.735-0.568H29.948z M20.429,69.919l-0.28-0.921l-0.28,0.921H18.96l0.735,0.568l-0.281,0.921l0.735-0.567
		l0.734,0.567l-0.28-0.921l0.734-0.568H20.429z M22.81,67.508l-0.281-0.921l-0.281,0.921h-0.909l0.735,0.569l-0.281,0.921
		l0.735-0.57l0.735,0.57l-0.281-0.921l0.735-0.569H22.81z M20.15,64.52l-0.28,0.921h-0.909l0.735,0.569l-0.281,0.921l0.735-0.569
		l0.734,0.569l-0.28-0.921l0.734-0.569H20.43L20.15,64.52z M25.189,69.919l-0.281-0.921l-0.281,0.921h-0.909l0.735,0.568
		l-0.28,0.921l0.735-0.567l0.735,0.567l-0.281-0.921l0.735-0.568H25.189z M18.052,67.508l-0.28-0.921l-0.28,0.921h-0.909
		l0.735,0.569l-0.281,0.921l0.735-0.57l0.735,0.57l-0.28-0.921l0.734-0.569H18.052z M20.429,74.399l-0.28-0.921l-0.28,0.921H18.96
		l0.735,0.569l-0.281,0.921l0.735-0.569l0.734,0.569l-0.28-0.921l0.734-0.569H20.429z M25.189,74.399l-0.281-0.921l-0.281,0.921
		h-0.909l0.735,0.569l-0.28,0.921l0.735-0.569l0.735,0.569l-0.281-0.921l0.735-0.569H25.189z M27.569,71.987l-0.281-0.921
		l-0.281,0.921h-0.908l0.734,0.57l-0.28,0.921l0.735-0.57l0.735,0.57l-0.28-0.921l0.735-0.57H27.569z M18.052,71.987l-0.28-0.921
		l-0.28,0.921h-0.909l0.735,0.57l-0.281,0.921l0.735-0.57l0.735,0.57l-0.28-0.921l0.734-0.57H18.052z M22.81,71.987l-0.281-0.921
		l-0.281,0.921h-0.909l0.735,0.57l-0.281,0.921l0.735-0.57l0.735,0.57l-0.281-0.921l0.735-0.57H22.81z M27.569,67.508l-0.281-0.921
		l-0.281,0.921h-0.908l0.734,0.569l-0.28,0.921l0.735-0.57l0.735,0.57l-0.28-0.921l0.735-0.569H27.569z M29.667,64.52l-0.281,0.921
		h-0.908l0.734,0.569l-0.28,0.921l0.734-0.569l0.735,0.569l-0.28-0.921l0.735-0.569h-0.909L29.667,64.52z M28.932,62.451
		l0.734-0.569l0.735,0.569l-0.28-0.921l0.735-0.569h-0.909l-0.281-0.921l-0.281,0.921h-0.908l0.734,0.569L28.932,62.451z
		 M33.69,62.451l0.735-0.569l0.735,0.569L34.88,61.53l0.735-0.569h-0.909l-0.28-0.921l-0.28,0.921h-0.909l0.736,0.569L33.69,62.451z
		 M31.592,63.599l-0.28,0.921l0.734-0.569l0.735,0.569L32.5,63.599l0.735-0.569h-0.909l-0.281-0.921l-0.279,0.921h-0.909
		L31.592,63.599z M26.833,63.599l-0.28,0.921l0.735-0.569l0.735,0.569l-0.28-0.921l0.735-0.569h-0.909l-0.281-0.921l-0.281,0.921
		h-0.908L26.833,63.599z M24.909,64.52l-0.281,0.921h-0.909l0.735,0.569l-0.28,0.921l0.735-0.569l0.735,0.569l-0.281-0.921
		l0.735-0.569h-0.909L24.909,64.52z M24.174,62.451l0.735-0.569l0.735,0.569l-0.281-0.921l0.735-0.569h-0.909l-0.281-0.921
		l-0.281,0.921h-0.909l0.735,0.569L24.174,62.451z M37.086,67.508l-0.281-0.921l-0.28,0.921h-0.909l0.735,0.569l-0.281,0.921
		l0.734-0.57l0.735,0.57l-0.281-0.921l0.736-0.569H37.086z M22.075,63.599l-0.281,0.921l0.735-0.569l0.735,0.569l-0.281-0.921
		l0.735-0.569H22.81l-0.281-0.921l-0.281,0.921h-0.909L22.075,63.599z M29.948,74.399l-0.281-0.921l-0.281,0.921h-0.908l0.734,0.569
		l-0.28,0.921l0.734-0.569l0.735,0.569l-0.28-0.921l0.735-0.569H29.948z M34.706,65.44l-0.28-0.921l-0.28,0.921h-0.909l0.736,0.569
		l-0.281,0.921l0.735-0.569l0.735,0.569l-0.281-0.921l0.735-0.569H34.706z M34.706,69.919l-0.28-0.921l-0.28,0.921h-0.909
		l0.736,0.568l-0.281,0.921l0.735-0.567l0.735,0.567l-0.281-0.921l0.735-0.568H34.706z M32.327,67.508l-0.281-0.921l-0.279,0.921
		h-0.909l0.734,0.569l-0.28,0.921l0.734-0.57l0.735,0.57L32.5,68.077l0.735-0.569H32.327z M34.706,74.399l-0.28-0.921l-0.28,0.921
		h-0.909l0.736,0.569l-0.281,0.921l0.735-0.569l0.735,0.569l-0.281-0.921l0.735-0.569H34.706z M36.35,63.599l-0.281,0.921
		l0.734-0.569l0.735,0.569l-0.281-0.921l0.736-0.569h-0.909l-0.281-0.921l-0.28,0.921h-0.909L36.35,63.599z M37.086,71.987
		l-0.281-0.921l-0.28,0.921h-0.909l0.735,0.57l-0.281,0.921l0.734-0.57l0.735,0.57l-0.281-0.921l0.736-0.57H37.086z M32.327,71.987
		l-0.281-0.921l-0.279,0.921h-0.909l0.734,0.57l-0.28,0.921l0.734-0.57l0.735,0.57L32.5,72.557l0.735-0.57H32.327z M19.415,62.451
		l0.735-0.569l0.734,0.569l-0.28-0.921l0.734-0.569H20.43l-0.281-0.921l-0.28,0.921H18.96l0.735,0.569L19.415,62.451z
		 M17.316,63.599l-0.281,0.921l0.735-0.569l0.735,0.569l-0.28-0.921l0.734-0.569h-0.908l-0.28-0.921l-0.28,0.921h-0.909
		L17.316,63.599z M14.656,62.451l0.735-0.569l0.734,0.569l-0.28-0.921l0.735-0.569h-0.908l-0.28-0.921l-0.281,0.921h-0.909
		l0.735,0.569L14.656,62.451z"/>
</g>
</svg>
