<?xml version="1.0" encoding="utf-8"?>
<!-- Generator: Adobe Illustrator 14.0.0, SVG Export Plug-In . SVG Version: 6.00 Build 43363)  -->
<!DOCTYPE svg PUBLIC "-//W3C//DTD SVG 1.1//EN" "http://www.w3.org/Graphics/SVG/1.1/DTD/svg11.dtd">
<svg version="1.1" id="Layer_1" xmlns="http://www.w3.org/2000/svg" xmlns:xlink="http://www.w3.org/1999/xlink" x="0px" y="0px"
	 width="80px" height="80px" viewBox="0 0 80 80" enable-background="new 0 0 80 80" xml:space="preserve">
<path fill="#231F20" d="M64.875,10C64.957,8.355,65,6.688,65,5H15c0,1.688,0.043,3.355,0.125,5H5v5
	c0,15.333,9.035,28.212,21.142,31.613c2.642,3.526,5.637,6.076,8.858,7.385V60H25v15h30V60H45v-6.002
	c3.446-1.399,6.631-4.226,9.402-8.143C66.352,41.571,75,29.363,75,15v-5H64.875z M10,15h5c0,5.309,1.188,10.319,3.281,14.749
	c0.972,3.405,2.137,6.559,3.467,9.402C14.755,34.481,10,25.407,10,15z M58.814,37.906C61.617,31.501,63.62,23.661,64.499,15H70
	C70,24.549,65.551,32.974,58.814,37.906z"/>
</svg>
