<?xml version="1.0" encoding="utf-8"?>
<!-- Generator: Adobe Illustrator 14.0.0, SVG Export Plug-In . SVG Version: 6.00 Build 43363)  -->
<!DOCTYPE svg PUBLIC "-//W3C//DTD SVG 1.1//EN" "http://www.w3.org/Graphics/SVG/1.1/DTD/svg11.dtd">
<svg version="1.1" id="Layer_1" xmlns="http://www.w3.org/2000/svg" xmlns:xlink="http://www.w3.org/1999/xlink" x="0px" y="0px"
	 width="768px" height="1364px" viewBox="0 0 768 1364" enable-background="new 0 0 768 1364" xml:space="preserve">
<linearGradient id="SVGID_1_" gradientUnits="userSpaceOnUse" x1="384.0005" y1="1364" x2="384.0004" y2="4.882813e-004">
	<stop  offset="0" style="stop-color:#3A9DD6"/>
	<stop  offset="1" style="stop-color:#1549BD"/>
</linearGradient>
<rect fill="url(#SVGID_1_)" width="768" height="1364"/>
<path id="Andreas_Hackel" fill="#FFFFFF" d="M125.228,560.982h-20.014v20.015v20.014v20.014v20.015v20.014v20.014h20.014v-20.014
	V641.04h20.015v20.014v20.014h20.014v-20.014V641.04v-20.015v-20.014v-20.014v-20.015h-20.014H125.228z M145.243,601.011v20.014
	h-20.015v-20.014v-20.014h20.015V601.011z M205.286,701.083h-20.014v20.015v20.014v20.015v20.015v20.014v20.015h20.014v-20.015
	v-20.014H225.3v20.014v20.015h20.015v-20.015v-20.014v-20.015v-20.015v-20.014v-20.015H225.3H205.286z M225.3,741.111v20.015
	h-20.014v-20.015v-20.014H225.3V741.111z M145.243,701.083h20.014v20.015v20.014v20.015v20.015v20.014v20.015h-20.014v-20.015
	v-20.014h-20.015v20.014v20.015h-20.014v-20.015v-20.014v-20.015v-20.015v-20.014v-20.015h20.014v20.015v20.014v20.015h20.015
	v-20.015v-20.014V701.083z M525.516,560.982h-20.015v20.015v20.014v20.014v20.015v20.014v20.014h20.015v-20.014V641.04h20.014
	v20.014v20.014h20.015v-20.014V641.04v-20.015v-20.014v-20.014v-20.015h-20.015H525.516z M545.529,601.011v20.014h-20.014v-20.014
	v-20.014h20.014V601.011z M605.573,681.068h-20.015v-20.014h20.015h20.014V641.04h-20.014h-20.015v-20.015v-20.014v-20.014v-20.015
	h20.015h20.014h20.015v20.015h-20.015h-20.014v20.014v20.014h20.014h20.015v20.015v20.014v20.014h-20.015H605.573z M225.3,560.982
	h20.015v20.015v20.014v20.014v20.015v20.014v20.014H225.3v-20.014V641.04v-20.015v-20.014v-20.014h-20.014v20.014v20.014v20.015
	v20.014v20.014h-20.014v-20.014V641.04v-20.015v-20.014v-20.014v-20.015h20.014H225.3z M285.343,661.054h20.014v20.014h-20.014
	h-20.015v-20.014V641.04v-20.015v-20.014v-20.014v-20.015h20.015h20.014v20.015h-20.014v20.014v20.014v20.015V661.054z
	 M305.357,580.997h20.014v20.014v20.014v20.015v20.014h-20.014V641.04v-20.015v-20.014V580.997z M305.357,701.083h20.014v20.015
	h-20.014h-20.014v20.014v20.015v20.015v20.014h20.014h20.014v20.015h-20.014h-20.014h-20.015v-20.015v-20.014v-20.015v-20.015
	v-20.014v-20.015h20.015H305.357z M545.529,801.154h20.015v20.015h-20.015h-20.014h-20.015v-20.015v-20.014v-20.015v-20.015v-20.014
	v-20.015h20.015v20.015v20.014v20.015v20.015v20.014H545.529z M365.4,761.126h20.015v20.015H365.4v20.014v20.015h-20.014v-20.015
	v-20.014v-20.015v-20.015v-20.014v-20.015H365.4v20.015v20.014V761.126z M385.415,701.083h20.014v20.015v20.014v20.015h-20.014
	v-20.015v-20.014V701.083z M385.415,801.154v-20.014h20.014v20.014v20.015h-20.014V801.154z M385.415,560.982h20.014v20.015v20.014
	v20.014h-20.014v-20.014v-20.014H365.4v20.014v20.014h20.015v20.015H365.4v20.014v20.014h-20.014v-20.014V641.04v-20.015v-20.014
	v-20.014v-20.015H365.4H385.415z M385.415,661.054V641.04h20.014v20.014v20.014h-20.014V661.054z M465.473,560.982h20.014v20.015
	h-20.014h-20.015v20.014v20.014h20.015h20.014v20.015h-20.014h-20.015v20.014h20.015h20.014v20.014h-20.014h-20.015h-20.015v-20.014
	V641.04v-20.015v-20.014v-20.014v-20.015h20.015H465.473z M465.473,701.083h20.014v20.015h-20.014h-20.015v20.014v20.015h20.015
	h20.014v20.015h-20.014h-20.015v20.014h20.015h20.014v20.015h-20.014h-20.015h-20.015v-20.015v-20.014v-20.015v-20.015v-20.014
	v-20.015h20.015H465.473z M633.611,765.721l11.144,34.297L615.58,778.82l-29.176,21.197l11.145-34.297l-29.176-21.197h36.063
	l11.144-34.299l11.144,34.299h36.063L633.611,765.721z"/>
</svg>
