<?xml version="1.0" encoding="utf-8"?>
<!-- Generator: Adobe Illustrator 14.0.0, SVG Export Plug-In . SVG Version: 6.00 Build 43363)  -->
<!DOCTYPE svg PUBLIC "-//W3C//DTD SVG 1.1//EN" "http://www.w3.org/Graphics/SVG/1.1/DTD/svg11.dtd">
<svg version="1.1" id="Layer_1" xmlns="http://www.w3.org/2000/svg" xmlns:xlink="http://www.w3.org/1999/xlink" x="0px" y="0px"
	 width="80px" height="80px" viewBox="0 0 80 80" enable-background="new 0 0 80 80" xml:space="preserve">
<linearGradient id="SVGID_1_" gradientUnits="userSpaceOnUse" x1="39.9995" y1="63.999" x2="39.9995" y2="16.001">
	<stop  offset="0" style="stop-color:#FFFFFF"/>
	<stop  offset="0.1383" style="stop-color:#E2E2E2"/>
	<stop  offset="0.439" style="stop-color:#989898"/>
	<stop  offset="0.8764" style="stop-color:#222222"/>
	<stop  offset="1" style="stop-color:#000000"/>
</linearGradient>
<path fill="url(#SVGID_1_)" d="M63.999,60.999c0,1.658-1.343,3-3,3H19c-1.656,0-3-1.342-3-3V19c0-1.657,1.344-3,3-3h41.999
	c1.657,0,3,1.343,3,3V60.999z"/>
<g>
	<linearGradient id="SVGID_2_" gradientUnits="userSpaceOnUse" x1="39.9995" y1="67.999" x2="39.9995" y2="12.001">
		<stop  offset="0" style="stop-color:#A1A1A1"/>
		<stop  offset="0.2617" style="stop-color:#989798"/>
		<stop  offset="0.7096" style="stop-color:#7E7B7E"/>
		<stop  offset="1" style="stop-color:#6B666B"/>
	</linearGradient>
	<path fill="url(#SVGID_2_)" d="M60.999,12H19c-3.86,0-7,3.14-7,7v41.999c0,3.859,3.14,7,7,7h41.999c3.859,0,7-3.141,7-7V19
		C67.999,15.141,64.858,12,60.999,12L60.999,12z"/>
	<path fill="#919191" d="M60.999,16c1.654,0,3,1.346,3,3v41.999c0,1.654-1.346,3-3,3H19c-1.654,0-3-1.346-3-3V19
		c0-1.654,1.346-3,3-3H60.999 M60.999,12H19c-3.86,0-7,3.14-7,7v41.999c0,3.859,3.14,7,7,7h41.999c3.859,0,7-3.141,7-7V19
		C67.999,15.141,64.858,12,60.999,12L60.999,12z"/>
</g>
</svg>
