<?xml version="1.0" encoding="utf-8"?>
<!-- Generator: Adobe Illustrator 15.1.0, SVG Export Plug-In . SVG Version: 6.00 Build 0)  -->
<!DOCTYPE svg PUBLIC "-//W3C//DTD SVG 1.1//EN" "http://www.w3.org/Graphics/SVG/1.1/DTD/svg11.dtd">
<svg version="1.1" id="Layer_1" xmlns="http://www.w3.org/2000/svg" xmlns:xlink="http://www.w3.org/1999/xlink" x="0px" y="0px"
	 width="512px" height="512px" viewBox="0 0 512 512" enable-background="new 0 0 512 512" xml:space="preserve">
<path fill="#FFFFFF" d="M463.91,384.494c-0.002-0.002-0.004-0.003-0.006-0.004L335.417,256l128.487-128.49
	c0.002-0.002,0.004-0.002,0.006-0.004c1.383-1.384,2.383-3,3.023-4.722c1.757-4.705,0.756-10.208-3.029-13.993l-60.696-60.697
	c-3.784-3.783-9.286-4.784-13.991-3.027c-1.721,0.641-3.339,1.641-4.723,3.023c0,0.001-0.002,0.002-0.004,0.004L256.001,176.585
	l-128.49-128.49c-0.001-0.001-0.002-0.002-0.004-0.004c-1.384-1.382-3-2.382-4.721-3.023c-4.707-1.757-10.208-0.755-13.993,3.027
	l-60.697,60.697c-3.784,3.784-4.785,9.287-3.028,13.992c0.642,1.721,1.642,3.339,3.024,4.722c0.002,0.001,0.002,0.002,0.004,0.004
	L176.586,256L48.096,384.491c-0.001,0.001-0.002,0.003-0.003,0.004c-1.382,1.384-2.382,3.001-3.025,4.722
	c-1.757,4.704-0.755,10.208,3.028,13.992l60.697,60.697c3.785,3.783,9.287,4.784,13.993,3.027c1.721-0.642,3.338-1.642,4.722-3.023
	c0.001-0.002,0.002-0.003,0.005-0.004l128.489-128.491l128.49,128.491c0.001,0,0.003,0.002,0.005,0.002
	c1.385,1.384,3,2.384,4.721,3.025c4.707,1.757,10.21,0.756,13.992-3.027l60.697-60.698c3.783-3.784,4.785-9.288,3.029-13.993
	C466.293,387.494,465.293,385.878,463.91,384.494z"/>
</svg>
