<?xml version="1.0" encoding="utf-8"?>
<!-- Generator: Adobe Illustrator 14.0.0, SVG Export Plug-In . SVG Version: 6.00 Build 43363)  -->
<!DOCTYPE svg PUBLIC "-//W3C//DTD SVG 1.1//EN" "http://www.w3.org/Graphics/SVG/1.1/DTD/svg11.dtd">
<svg version="1.1" id="Layer_1" xmlns="http://www.w3.org/2000/svg" xmlns:xlink="http://www.w3.org/1999/xlink" x="0px" y="0px"
	 width="160px" height="20px" viewBox="0 0 160 20" enable-background="new 0 0 160 20" xml:space="preserve">
<path fill="#936131" d="M3.192,19C1.984,19,1,18.018,1,16.809V3.192C1,1.983,1.984,1,3.192,1h13.616C18.017,1,19,1.983,19,3.192
	v13.617C19,18.018,18.017,19,16.808,19H3.192z"/>
<path fill="#7A5028" d="M16.904,2C17.55,2,18,2.546,18,3.192v13.617C18,17.454,17.454,18,16.808,18H3.192
	C2.546,18,2,17.454,2,16.809V3.192C2,2.546,2.546,2,3.192,2H17 M16.808,0H3.192C1.436,0,0,1.437,0,3.192v13.617
	C0,18.563,1.436,20,3.192,20h13.616C18.563,20,20,18.563,20,16.809V3.192C20,1.437,18.563,0,16.808,0"/>
<path fill="#CE3C28" d="M23.192,19C21.984,19,21,18.018,21,16.809V3.192C21,1.983,21.984,1,23.192,1h13.616
	C38.017,1,39,1.983,39,3.192v13.617C39,18.018,38.017,19,36.808,19H23.192z"/>
<path fill="#A1301E" d="M36.904,2C37.55,2,38,2.546,38,3.192v13.617C38,17.454,37.454,18,36.808,18H23.192
	C22.546,18,22,17.454,22,16.809V3.192C22,2.546,22.546,2,23.192,2H37 M36.808,0H23.192C21.436,0,20,1.437,20,3.192v13.617
	C20,18.563,21.436,20,23.192,20h13.616C38.563,20,40,18.563,40,16.809V3.192C40,1.437,38.563,0,36.808,0"/>
<path fill="#0564CA" d="M43.192,19C41.983,19,41,18.018,41,16.809V3.192C41,1.983,41.983,1,43.192,1h13.615
	C58.017,1,59,1.983,59,3.192v13.617C59,18.018,58.017,19,56.808,19H43.192z"/>
<path fill="#0453A8" d="M56.905,2C57.551,2,58,2.546,58,3.192v13.617C58,17.454,57.454,18,56.808,18H43.192
	C42.545,18,42,17.454,42,16.809V3.192C42,2.546,42.545,2,43.192,2H57 M56.808,0H43.192C41.437,0,40,1.437,40,3.192v13.617
	C40,18.563,41.437,20,43.192,20h13.615C58.563,20,60,18.563,60,16.809V3.192C60,1.437,58.563,0,56.808,0"/>
<path fill="#0564CA" d="M97.439,10.042c0,4.097-3.32,7.417-7.418,7.417s-7.416-3.32-7.416-7.417c0-4.096,3.318-7.417,7.416-7.417
	S97.439,5.946,97.439,10.042"/>
<circle fill="none" stroke="#0453A8" stroke-width="2" cx="90.021" cy="10.042" r="7.417"/>
<path fill="#CE3C28" d="M77.439,10.042c0,4.097-3.32,7.417-7.417,7.417s-7.417-3.32-7.417-7.417c0-4.096,3.32-7.417,7.417-7.417
	S77.439,5.946,77.439,10.042"/>
<circle fill="none" stroke="#A32D18" stroke-width="2" cx="70.022" cy="10.042" r="7.417"/>
<path fill="#FFFFFF" d="M26,4c0,1.104-0.896,2-2,2s-2-0.896-2-2s0.896-2,2-2S26,2.896,26,4"/>
<path fill="#FFFFFF" d="M46,4c0,1.104-0.896,2-2,2c-1.105,0-2-0.896-2-2s0.895-2,2-2C45.104,2,46,2.896,46,4"/>
<path fill="#ED8F36" d="M123.191,19c-1.209,0-2.191-0.982-2.191-2.191V3.192C121,1.983,121.982,1,123.191,1h13.615
	C138.018,1,139,1.983,139,3.192v13.617c0,1.209-0.982,2.191-2.191,2.191H123.191z"/>
<g>
	<path fill="#275900" d="M155.587,4.415v11.17h-11.172V4.415H155.587 M155.738,2.415h-11.475c-1.02,0-1.849,0.828-1.849,1.847
		v11.474c0,1.02,0.829,1.849,1.849,1.849h11.475c1.02,0,1.849-0.829,1.849-1.849V4.262C157.587,3.244,156.758,2.415,155.738,2.415
		L155.738,2.415z"/>
</g>
<path fill="#C97A2E" d="M136.904,2C137.551,2,138,2.546,138,3.192v13.617c0,0.646-0.547,1.191-1.191,1.191h-13.615
	c-0.646,0-1.191-0.546-1.191-1.191V3.192C122,2.546,122.545,2,123.191,2H137 M136.809,0h-13.615C121.438,0,120,1.437,120,3.192
	v13.617c0,1.756,1.438,3.191,3.191,3.191h13.615c1.756,0,3.191-1.438,3.191-3.191V3.192C140,1.437,138.563,0,136.809,0"/>
<polygon fill="#FFF200" points="110,3.118 112.21,7.596 117.15,8.313 113.575,11.799 114.42,16.721 110,14.396 105.58,16.721 
	106.425,11.799 102.85,8.313 107.79,7.596 "/>
<polygon fill="none" stroke="#F7941E" stroke-width="2" points="110,3.118 112.21,7.596 117.15,8.313 113.575,11.799 114.42,16.721 
	110,14.396 105.58,16.721 106.425,11.799 102.85,8.313 107.79,7.596 "/>
</svg>
