<?xml version="1.0" encoding="utf-8"?>
<!-- Generator: Adobe Illustrator 15.1.0, SVG Export Plug-In . SVG Version: 6.00 Build 0)  -->
<!DOCTYPE svg PUBLIC "-//W3C//DTD SVG 1.1//EN" "http://www.w3.org/Graphics/SVG/1.1/DTD/svg11.dtd">
<svg version="1.1" id="Layer_1" xmlns="http://www.w3.org/2000/svg" xmlns:xlink="http://www.w3.org/1999/xlink" x="0px" y="0px"
	 width="511px" height="512px" viewBox="0 0 511 512" enable-background="new 0 0 511 512" xml:space="preserve">
<path fill="#FFFFFF" d="M422.604,227.741c38.082-38.057,38.082-99.809,0-137.841c-19.021-19.022-43.986-28.552-68.914-28.552
	c-24.903,0-49.88,9.53-68.891,28.552l-7.198,7.199l-36.288-36.324l-34.408,34.433l36.324,36.3L60.767,314.08v88.436l47.952,48.709
	h90.462l181.815-181.876l35.08,35.104l34.457-34.409l-35.129-35.104L422.604,227.741z M186.687,394.695
	c0.573-18.498-5.82-37.031-19.876-51.1c-12.921-12.959-29.784-19.304-46.756-19.877l157.631-157.681l68.854,68.804L186.687,394.695z
	"/>
</svg>
