<?xml version="1.0" encoding="utf-8"?>
<!-- Generator: Adobe Illustrator 14.0.0, SVG Export Plug-In . SVG Version: 6.00 Build 43363)  -->
<!DOCTYPE svg PUBLIC "-//W3C//DTD SVG 1.1//EN" "http://www.w3.org/Graphics/SVG/1.1/DTD/svg11.dtd">
<svg version="1.1" id="Layer_1" xmlns="http://www.w3.org/2000/svg" xmlns:xlink="http://www.w3.org/1999/xlink" x="0px" y="0px"
	 width="80px" height="80px" viewBox="0 0 80 80" enable-background="new 0 0 80 80" xml:space="preserve">
<g>
	<linearGradient id="SVGID_1_" gradientUnits="userSpaceOnUse" x1="39.999" y1="27.9229" x2="39.9912" y2="0.6124">
		<stop  offset="0.0658" style="stop-color:#525252"/>
		<stop  offset="0.1328" style="stop-color:#5F5F5F"/>
		<stop  offset="0.2784" style="stop-color:#777777"/>
		<stop  offset="0.4145" style="stop-color:#858585"/>
		<stop  offset="0.5304" style="stop-color:#8A8A8A"/>
	</linearGradient>
	<path fill="url(#SVGID_1_)" d="M51.766,33.875l-0.029-2.041c-0.09-7.48-0.191-15.959-11.621-15.959
		c-10.195,0-11.728,8.178-11.866,17.016l-0.016,0.984H14.746l0.01-1.01C14.829,25.8,16.863,2.75,40,2.75
		c16.078,0,25.044,10.695,25.244,30.115l0.011,1.01H51.766z"/>
	<path fill="#363636" d="M40,3.75c19.625,0,24.107,15.869,24.244,29.125H52.75c-0.121-7.741,0.365-18-12.635-18
		c-11.75,0-12.745,10.259-12.866,18H15.756C15.892,19.619,21.25,3.75,40,3.75 M40,1.75c-9.074,0-16.257,3.628-20.773,10.492
		c-4.416,6.712-5.413,14.914-5.471,20.612l-0.021,2.021h2.021H27.25h1.969l0.031-1.969c0.15-9.623,2.055-16.031,10.866-16.031
		c9.715,0,10.513,5.928,10.621,14.971l0.014,1.061l0.031,1.969h1.969h11.494h2.021l-0.021-2.021C66.037,12.796,56.717,1.75,40,1.75
		L40,1.75z"/>
</g>
<path display="none" fill="#282525" d="M48.125,50.438c0-4.59-3.723-8.312-8.312-8.312c-4.59,0-8.313,3.722-8.313,8.312
	c0,2.449,1.065,4.645,2.75,6.164V69h10.875V56.829C46.957,55.305,48.125,53.008,48.125,50.438z"/>
<circle display="none" fill="#FFFFFF" cx="27.062" cy="9.812" r="2.812"/>
<g>
	<path fill="#575757" d="M14.355,77.25c-3.309,0-6-2.691-6-6V33.125c0-3.309,2.691-6,6-6h51.52c3.309,0,6,2.691,6,6V71.25
		c0,3.309-2.691,6-6,6H14.355z"/>
	<path fill="#363636" d="M65.875,28.125c2.75,0,5,2.25,5,5V71.25c0,2.75-2.25,5-5,5h-51.52c-2.75,0-5-2.25-5-5V33.125
		c0-2.75,2.25-5,5-5H65.875 M65.875,26.125h-51.52c-3.86,0-7,3.14-7,7V71.25c0,3.859,3.14,7,7,7h51.52c3.859,0,7-3.141,7-7V33.125
		C72.875,29.265,69.734,26.125,65.875,26.125L65.875,26.125z"/>
</g>
<g>
	<linearGradient id="SVGID_2_" gradientUnits="userSpaceOnUse" x1="40.1147" y1="29.2441" x2="40.1147" y2="69.0426">
		<stop  offset="0" style="stop-color:#737373"/>
		<stop  offset="1" style="stop-color:#B8B8B8"/>
	</linearGradient>
	<path fill="url(#SVGID_2_)" d="M14.355,69.875c-2.206,0-4-1.794-4-4v-32.75c0-2.206,1.794-4,4-4h51.52c2.206,0,4,1.794,4,4v32.75
		c0,2.206-1.794,4-4,4H14.355z"/>
	<path fill="#8A8A8A" d="M65.875,30.125c1.654,0,3,1.346,3,3v32.75c0,1.654-1.346,3-3,3h-51.52c-1.654,0-3-1.346-3-3v-32.75
		c0-1.654,1.346-3,3-3H65.875 M65.875,28.125h-51.52c-2.75,0-5,2.25-5,5v32.75c0,2.75,2.25,5,5,5h51.52c2.75,0,5-2.25,5-5v-32.75
		C70.875,30.375,68.625,28.125,65.875,28.125L65.875,28.125z"/>
</g>
<path fill="#292929" d="M46.75,44.25c0-3.728-3.022-6.75-6.75-6.75c-3.728,0-6.75,3.022-6.75,6.75c0,2.282,1.136,4.297,2.871,5.519
	L35.375,61.25h9.25L43.88,49.768C45.613,48.546,46.75,46.532,46.75,44.25z"/>
</svg>
