<?xml version="1.0" encoding="utf-8"?>
<!-- Generator: Adobe Illustrator 15.1.0, SVG Export Plug-In . SVG Version: 6.00 Build 0)  -->
<!DOCTYPE svg PUBLIC "-//W3C//DTD SVG 1.1//EN" "http://www.w3.org/Graphics/SVG/1.1/DTD/svg11.dtd">
<svg version="1.1" id="Layer_1" xmlns="http://www.w3.org/2000/svg" xmlns:xlink="http://www.w3.org/1999/xlink" x="0px" y="0px"
	 width="80px" height="80px" viewBox="0 0 80 80" enable-background="new 0 0 80 80" xml:space="preserve">
<g id="Base">
	<path fill="#712312" d="M11.795,80C5.292,80,0,74.72,0,68.229V11.937C0,5.447,5.292,0.167,11.795,0.167h56.41
		C74.708,0.167,80,5.447,80,11.937v56.292C80,74.72,74.708,80,68.205,80H11.795z"/>
</g>
<linearGradient id="Surface_1_" gradientUnits="userSpaceOnUse" x1="-9.1733" y1="88.2949" x2="-8.3066" y2="88.2949" gradientTransform="matrix(0 -68.9995 -68.9995 0 6132.522 -568.0002)">
	<stop  offset="0" style="stop-color:#FF4A21"/>
	<stop  offset="1" style="stop-color:#A82C10"/>
</linearGradient>
<rect id="Surface" x="5.263" y="5.147" fill="url(#Surface_1_)" width="69.987" height="59.795"/>
<g id="Bevel">
	<path fill="#D02F0A" d="M68.947,5.147c3.193,0,5.79,2.539,5.79,5.662v48.383c0,3.122-2.597,5.661-5.79,5.661H11.053
		c-3.193,0-5.79-2.539-5.79-5.661V10.809c0-3.123,2.597-5.662,5.79-5.662H68.947 M68.947,0H11.053C4.958,0,0,4.849,0,10.809v48.383
		C0,65.152,4.958,70,11.053,70h57.894C75.042,70,80,65.152,80,59.191V10.809C80,4.849,75.042,0,68.947,0L68.947,0z"/>
	<path fill="none" stroke="#FD4A25" stroke-width="2.5" d="M11.053,65.883c-3.772,0-6.842-3.002-6.842-6.691V10.809
		c0-3.689,3.069-6.691,6.842-6.691h57.894c3.772,0,6.842,3.001,6.842,6.691v48.383c0,3.689-3.069,6.691-6.842,6.691H11.053z"/>
</g>
<path id="Highlight" fill="#FFE4DE" d="M10.5,5.883c0,1.892-1.567,3.426-3.5,3.426S3.5,7.775,3.5,5.883
	c0-1.892,1.567-3.425,3.5-3.425S10.5,3.991,10.5,5.883"/>
<g>
	<g>
		<path fill="#FFFFFF" d="M26.507,30.197c-0.954-0.191-2.251-0.115-4.656,0h-0.076h-0.038c0,0.038-0.038,0.076-0.038,0.114
			c-0.153,0.725-0.115,3.511,0.19,20.188v0.038v0.039c-1.87,0.305-4.427-0.039-6.258,0.267c-0.115-0.458,0.343-6.106-0.267-20.34
			l-0.039-0.038c-1.183-0.611-3.969-0.267-4.579-0.458c-0.191-0.382-0.344-3.587-0.153-5.992c0-0.038-0.038-0.038-0.038-0.076
			c5.19-0.038,10.876-0.229,16.104,0.343C26.774,25.961,26.774,28.365,26.507,30.197z"/>
		<path fill="#FFFFFF" d="M35.818,23.977v0.153c0,8.739-0.534,17.822-0.038,26.485c-0.839,0.839-5.877,0.037-6.945,0.343
			c0.725-9.197-0.611-18.546,0.305-27.095v-0.077c0.267-0.038,1.221,0.077,1.564,0.077c0.916,0.038,1.908,0.152,4.198,0.114H35.818z
			"/>
		<path fill="#FFFFFF" d="M53.105,50.805c-1.068-0.113-2.787,0.229-15.074,0.038v-0.687c0.458-11.449,0.267-15.456,0.114-26.18
			c1.03-0.42,4.656-0.496,6.106,0.115c-0.19,6.602,0.151,14.082,0.038,20.646v0.039c0.992-0.305,8.662,0.383,9.884,0.229
			c0,0.269,0,0.573-0.038,0.841c-0.037,0.495-0.076,1.067-0.037,1.487C54.288,50.995,54.174,50.805,53.105,50.805z"/>
		<path fill="#FFFFFF" d="M68.37,30.197c-0.954-0.191-2.251-0.115-4.655,0h-0.076H63.6c0,0.038-0.037,0.076-0.037,0.114
			c-0.151,0.725-0.113,3.511,0.19,20.188v0.038v0.039c-1.87,0.305-4.427-0.039-6.259,0.267c-0.114-0.458,0.344-6.106-0.268-20.34
			l-0.039-0.038c-1.184-0.611-3.97-0.267-4.578-0.458c-0.191-0.382-0.344-3.587-0.152-5.992c0-0.038-0.039-0.038-0.039-0.076
			c5.189-0.038,10.877-0.229,16.104,0.343C68.639,25.961,68.639,28.365,68.37,30.197z"/>
	</g>
	<g>
		<path fill="#FFFFFF" d="M26.507,30.197c-0.954-0.191-2.251-0.115-4.656,0h-0.076h-0.038c0,0.038-0.038,0.076-0.038,0.114
			c-0.153,0.725-0.115,3.511,0.19,20.188v0.038v0.039c-1.87,0.305-4.427-0.039-6.258,0.267c-0.115-0.458,0.343-6.106-0.267-20.34
			l-0.039-0.038c-1.183-0.611-3.969-0.267-4.579-0.458c-0.191-0.382-0.344-3.587-0.153-5.992c0-0.038-0.038-0.038-0.038-0.076
			c5.19-0.038,10.876-0.229,16.104,0.343C26.774,25.961,26.774,28.365,26.507,30.197z"/>
		<path fill="#FFFFFF" d="M35.818,23.977v0.153c0,8.739-0.534,17.822-0.038,26.485c-0.839,0.839-5.877,0.037-6.945,0.343
			c0.725-9.197-0.611-18.546,0.305-27.095v-0.077c0.267-0.038,1.221,0.077,1.564,0.077c0.916,0.038,1.908,0.152,4.198,0.114H35.818z
			"/>
		<path fill="#FFFFFF" d="M53.105,50.805c-1.068-0.113-2.787,0.229-15.074,0.038v-0.687c0.458-11.449,0.267-15.456,0.114-26.18
			c1.03-0.42,4.656-0.496,6.106,0.115c-0.19,6.602,0.151,14.082,0.038,20.646v0.039c0.992-0.305,8.662,0.383,9.884,0.229
			c0,0.269,0,0.573-0.038,0.841c-0.037,0.495-0.076,1.067-0.037,1.487C54.288,50.995,54.174,50.805,53.105,50.805z"/>
		<path fill="#FFFFFF" d="M68.37,30.197c-0.954-0.191-2.251-0.115-4.655,0h-0.076H63.6c0,0.038-0.037,0.076-0.037,0.114
			c-0.151,0.725-0.113,3.511,0.19,20.188v0.038v0.039c-1.87,0.305-4.427-0.039-6.259,0.267c-0.114-0.458,0.344-6.106-0.268-20.34
			l-0.039-0.038c-1.184-0.611-3.97-0.267-4.578-0.458c-0.191-0.382-0.344-3.587-0.152-5.992c0-0.038-0.039-0.038-0.039-0.076
			c5.189-0.038,10.877-0.229,16.104,0.343C68.639,25.961,68.639,28.365,68.37,30.197z"/>
	</g>
</g>
</svg>
