<?xml version="1.0" encoding="utf-8"?>
<!-- Generator: Adobe Illustrator 15.1.0, SVG Export Plug-In . SVG Version: 6.00 Build 0)  -->
<!DOCTYPE svg PUBLIC "-//W3C//DTD SVG 1.1//EN" "http://www.w3.org/Graphics/SVG/1.1/DTD/svg11.dtd">
<svg version="1.1" id="Layer_1" xmlns="http://www.w3.org/2000/svg" xmlns:xlink="http://www.w3.org/1999/xlink" x="0px" y="0px"
	 width="80px" height="80px" viewBox="0 0 80 80" enable-background="new 0 0 80 80" xml:space="preserve">
<g id="Base">
	<path fill="#712312" d="M11.795,80C5.292,80,0,74.721,0,68.229V11.937c0-6.49,5.292-11.77,11.795-11.77h56.41
		C74.708,0.167,80,5.447,80,11.937v56.292C80,74.721,74.708,80,68.205,80H11.795z"/>
</g>
<linearGradient id="Surface_1_" gradientUnits="userSpaceOnUse" x1="-13.8257" y1="-3.9463" x2="-12.959" y2="-3.9463" gradientTransform="matrix(0 -68.9995 68.9995 0 312.5405 -889.0002)">
	<stop  offset="0" style="stop-color:#FF4A21"/>
	<stop  offset="1" style="stop-color:#A82C10"/>
</linearGradient>
<rect id="Surface" x="5.263" y="5.147" fill="url(#Surface_1_)" width="69.987" height="59.794"/>
<g id="Bevel">
	<path fill="#D02F0A" d="M68.947,5.147c3.193,0,5.789,2.539,5.789,5.662v48.382c0,3.123-2.596,5.662-5.789,5.662H11.053
		c-3.193,0-5.79-2.539-5.79-5.662V10.809c0-3.123,2.597-5.662,5.79-5.662H68.947 M68.947,0H11.053C4.958,0,0,4.849,0,10.809v48.382
		C0,65.152,4.958,70,11.053,70h57.894C75.042,70,80,65.152,80,59.191V10.809C80,4.849,75.042,0,68.947,0L68.947,0z"/>
	<path fill="none" stroke="#FD4A25" stroke-width="2.5" d="M11.053,65.883c-3.772,0-6.842-3.002-6.842-6.691V10.809
		c0-3.689,3.069-6.691,6.842-6.691h57.894c3.771,0,6.842,3.001,6.842,6.691v48.382c0,3.689-3.068,6.691-6.842,6.691H11.053z"/>
</g>
<path id="Highlight" fill="#FFE4DE" d="M10.5,5.883c0,1.892-1.567,3.426-3.5,3.426S3.5,7.775,3.5,5.883
	c0-1.892,1.567-3.425,3.5-3.425S10.5,3.991,10.5,5.883"/>
<g>
	<g>
		<path fill="#FFFFFF" d="M26.507,30.197c-0.954-0.191-2.251-0.115-4.656,0h-0.076h-0.038c0,0.038-0.038,0.076-0.038,0.114
			c-0.153,0.725-0.115,3.511,0.19,20.188v0.038v0.039c-1.87,0.305-4.427-0.039-6.258,0.267c-0.115-0.458,0.343-6.106-0.267-20.34
			l-0.039-0.038c-1.183-0.611-3.969-0.267-4.579-0.458c-0.191-0.382-0.344-3.587-0.153-5.992c0-0.038-0.038-0.038-0.038-0.076
			c5.19-0.038,10.876-0.229,16.104,0.343C26.774,25.961,26.774,28.365,26.507,30.197z"/>
		<path fill="#FFFFFF" d="M35.818,23.977v0.153c0,8.739-0.534,17.822-0.038,26.485c-0.839,0.839-5.877,0.037-6.945,0.343
			c0.725-9.197-0.611-18.546,0.305-27.095v-0.077c0.267-0.038,1.221,0.077,1.564,0.077c0.916,0.038,1.908,0.152,4.198,0.114H35.818z
			"/>
		<path fill="#FFFFFF" d="M53.105,50.805c-1.068-0.113-2.787,0.229-15.074,0.038v-0.687c0.458-11.449,0.267-15.456,0.114-26.18
			c1.03-0.42,4.656-0.496,6.106,0.115c-0.19,6.602,0.151,14.082,0.038,20.646v0.039c0.992-0.305,8.662,0.384,9.884,0.229
			c0,0.269,0,0.573-0.038,0.841c-0.037,0.495-0.076,1.067-0.037,1.487C54.288,50.995,54.174,50.805,53.105,50.805z"/>
		<path fill="#FFFFFF" d="M68.37,30.197c-0.954-0.191-2.251-0.115-4.655,0h-0.076H63.6c0,0.038-0.037,0.076-0.037,0.114
			c-0.15,0.725-0.112,3.511,0.19,20.188v0.038v0.039c-1.87,0.305-4.427-0.039-6.259,0.267c-0.114-0.458,0.344-6.106-0.268-20.34
			l-0.039-0.038c-1.185-0.611-3.971-0.267-4.578-0.458c-0.191-0.382-0.344-3.587-0.152-5.992c0-0.038-0.039-0.038-0.039-0.076
			c5.189-0.038,10.877-0.229,16.104,0.343C68.639,25.961,68.639,28.365,68.37,30.197z"/>
	</g>
	<g>
		<path fill="#FFFFFF" d="M26.507,30.197c-0.954-0.191-2.251-0.115-4.656,0h-0.076h-0.038c0,0.038-0.038,0.076-0.038,0.114
			c-0.153,0.725-0.115,3.511,0.19,20.188v0.038v0.039c-1.87,0.305-4.427-0.039-6.258,0.267c-0.115-0.458,0.343-6.106-0.267-20.34
			l-0.039-0.038c-1.183-0.611-3.969-0.267-4.579-0.458c-0.191-0.382-0.344-3.587-0.153-5.992c0-0.038-0.038-0.038-0.038-0.076
			c5.19-0.038,10.876-0.229,16.104,0.343C26.774,25.961,26.774,28.365,26.507,30.197z"/>
		<path fill="#FFFFFF" d="M35.818,23.977v0.153c0,8.739-0.534,17.822-0.038,26.485c-0.839,0.839-5.877,0.037-6.945,0.343
			c0.725-9.197-0.611-18.546,0.305-27.095v-0.077c0.267-0.038,1.221,0.077,1.564,0.077c0.916,0.038,1.908,0.152,4.198,0.114H35.818z
			"/>
		<path fill="#FFFFFF" d="M53.105,50.805c-1.068-0.113-2.787,0.229-15.074,0.038v-0.687c0.458-11.449,0.267-15.456,0.114-26.18
			c1.03-0.42,4.656-0.496,6.106,0.115c-0.19,6.602,0.151,14.082,0.038,20.646v0.039c0.992-0.305,8.662,0.384,9.884,0.229
			c0,0.269,0,0.573-0.038,0.841c-0.037,0.495-0.076,1.067-0.037,1.487C54.288,50.995,54.174,50.805,53.105,50.805z"/>
		<path fill="#FFFFFF" d="M68.37,30.197c-0.954-0.191-2.251-0.115-4.655,0h-0.076H63.6c0,0.038-0.037,0.076-0.037,0.114
			c-0.15,0.725-0.112,3.511,0.19,20.188v0.038v0.039c-1.87,0.305-4.427-0.039-6.259,0.267c-0.114-0.458,0.344-6.106-0.268-20.34
			l-0.039-0.038c-1.185-0.611-3.971-0.267-4.578-0.458c-0.191-0.382-0.344-3.587-0.152-5.992c0-0.038-0.039-0.038-0.039-0.076
			c5.189-0.038,10.877-0.229,16.104,0.343C68.639,25.961,68.639,28.365,68.37,30.197z"/>
	</g>
</g>
<g id="Free_Label">
	<g>
		<path fill="#005991" d="M80,23.878V54.99L65.059,70H33.946L80,23.878z"/>
		<polygon fill="#00629F" points="77.083,26.799 36.775,67.166 67.88,67.166 77.083,57.921 		"/>
		<polygon fill="#004069" points="55.059,80 65.059,70 33.946,70 23.946,80 		"/>
	</g>
	<g>
		<path fill="#FFFFFF" d="M57.977,62.698l-1.285,1.622l-0.01,0.011c0.469,0.562,1.365,1.519,2.688,2.872
			c-0.279,0.34-0.663,0.755-1.149,1.242c-0.488,0.488-0.771,0.731-0.847,0.731l-7.66-7.704l-0.011-0.012
			c0.613-0.871,1.422-1.809,2.428-2.814s1.881-1.765,2.621-2.278l1.68,1.68c-1.565,1.731-2.515,2.804-2.849,3.21
			c0.099,0.251,0.233,0.463,0.408,0.637c0.175,0.176,0.327,0.278,0.459,0.312c0.134,0.036,0.202,0.049,0.21,0.041
			c0.229-0.183,0.46-0.392,0.697-0.63c0.238-0.238,0.482-0.506,0.733-0.801c0.082,0.039,0.252,0.187,0.511,0.441l0.853,0.875
			c0.211,0.213,0.389,0.383,0.532,0.51C58.001,62.656,57.997,62.676,57.977,62.698z"/>
		<path fill="#FFFFFF" d="M68.357,58.17l-1.43,1.521c-0.189,0.188-0.328,0.312-0.421,0.373l-0.013,0.013
			c-1.814-0.728-3.289-1.147-4.424-1.271l-0.059-0.013c0.113,0.146,0.361,0.408,0.743,0.79c0.382,0.381,1.075,1.021,2.083,1.922
			c-0.13,0.295-0.508,0.758-1.138,1.385l-0.577,0.578c-0.074,0.076-0.121,0.121-0.137,0.135c0.031-0.028-1.146-1.237-3.533-3.625
			c-2.387-2.387-3.879-3.795-4.479-4.227c0.756-1.016,1.356-1.742,1.799-2.186c0.444-0.442,0.785-0.762,1.028-0.959
			c0.462-0.416,0.99-0.688,1.589-0.816c1.157-0.25,2.213,0.051,3.164,0.896c0.047,0.03,0.088,0.063,0.127,0.103
			c0.377,0.378,0.631,0.858,0.76,1.44c0.302,0.938,0.139,1.76-0.486,2.463l-0.059,0.06l0.013,0.011
			c0.211,0.06,1.003,0.23,2.377,0.516C66.661,57.562,67.684,57.859,68.357,58.17z M60.357,56.411
			c0.188-0.188,0.348-0.369,0.478-0.545c0.256-0.394,0.17-0.806-0.262-1.237c-0.271-0.271-0.57-0.381-0.896-0.329
			c-0.302,0.017-0.571,0.144-0.811,0.382s-0.45,0.571-0.642,1.004c0.112,0.098,0.346,0.318,0.695,0.664
			c0.354,0.344,0.604,0.567,0.756,0.676l0.014-0.012C59.945,56.803,60.169,56.602,60.357,56.411z"/>
		<path fill="#FFFFFF" d="M69.096,54.302l2.562-2.43c0.175-0.173,0.328-0.334,0.466-0.486l0.022,0.023
			c0.196,0.166,0.432,0.385,0.705,0.655c0.271,0.272,0.502,0.58,0.689,0.92l-3.188,3.257c-0.522,0.522-1.018,0.979-1.485,1.374
			l-5.38-5.266c-0.854-0.854-1.646-1.69-2.371-2.509c1.209-1.345,2.275-2.479,3.199-3.403c0.925-0.922,1.399-1.375,1.432-1.359
			c0.18,0.136,0.361,0.294,0.544,0.475l1.065,1.137l0.012,0.012c-0.255,0.408-0.658,0.885-1.204,1.43l-0.589,0.592
			c-0.424,0.422-0.771,0.785-1.044,1.09l-0.034,0.033v0.021l0.953,1.021c0.197,0.196,0.331,0.295,0.408,0.295
			c0.431-0.388,0.906-0.841,1.429-1.361l0.013,0.011c0.055-0.007,0.227,0.138,0.523,0.431l1.074,1.125
			c-0.11,0.203-0.344,0.481-0.695,0.834c-0.354,0.352-0.535,0.573-0.551,0.664c0.13,0.188,0.312,0.401,0.549,0.641
			c0.24,0.238,0.529,0.498,0.869,0.777h0.025V54.302L69.096,54.302z"/>
		<path fill="#FFFFFF" d="M74.555,48.846l2.562-2.43c0.175-0.176,0.331-0.337,0.467-0.486l0.022,0.021
			c0.195,0.168,0.431,0.387,0.703,0.658c0.272,0.272,0.502,0.578,0.69,0.92l-3.188,3.255c-0.521,0.522-1.017,0.981-1.484,1.376
			l-5.379-5.268c-0.855-0.854-1.646-1.689-2.372-2.507c1.21-1.346,2.276-2.479,3.2-3.403c0.923-0.923,1.398-1.377,1.431-1.362
			c0.181,0.136,0.362,0.296,0.543,0.477l1.067,1.135l0.012,0.013c-0.258,0.409-0.659,0.886-1.204,1.43l-0.59,0.589
			c-0.423,0.424-0.771,0.788-1.043,1.092l-0.033,0.033l-0.002,0.021l0.955,1.021c0.196,0.197,0.33,0.295,0.407,0.295
			c0.431-0.387,0.906-0.84,1.432-1.361l0.012,0.012c0.053-0.008,0.225,0.137,0.521,0.432l1.077,1.123
			c-0.113,0.203-0.346,0.482-0.697,0.836c-0.354,0.352-0.536,0.571-0.551,0.662c0.129,0.189,0.312,0.404,0.549,0.641
			c0.24,0.238,0.529,0.498,0.871,0.779L74.555,48.846z"/>
	</g>
</g>
</svg>
