<?xml version="1.0" encoding="utf-8"?>
<!-- Generator: Adobe Illustrator 14.0.0, SVG Export Plug-In . SVG Version: 6.00 Build 43363)  -->
<!DOCTYPE svg PUBLIC "-//W3C//DTD SVG 1.1//EN" "http://www.w3.org/Graphics/SVG/1.1/DTD/svg11.dtd">
<svg version="1.1" id="Layer_1" xmlns="http://www.w3.org/2000/svg" xmlns:xlink="http://www.w3.org/1999/xlink" x="0px" y="0px"
	 width="320px" height="80px" viewBox="0 0 320 80" enable-background="new 0 0 320 80" xml:space="preserve">
<path d="M41.873,48.313c-0.792,0-1.704-0.096-2.352-0.168V48.12v-2.328c0-3.097,0.288-6.12,0.288-9.217c0-0.168,0-0.264-0.024-0.432
	c-0.312-0.072-0.504,1.32-1.032,1.32c-0.288,0-2.904-0.601-2.904-0.889c0.096-1.08,2.712-5.16,2.904-5.353
	c0.744-0.023,1.44-0.048,2.184-0.048c0.84,0,1.656,0.024,2.52,0.097c0.096,1.367,0.12,2.688,0.12,4.032
	c0,3.672-0.264,7.225-0.264,10.895c0,0.553,0,1.129,0.024,1.682C43.337,48.266,42.473,48.313,41.873,48.313z"/>
<path d="M115.86,48.337h-1.08c-0.024-0.024-0.024-0.049-0.024-0.071c0.192-2.16-0.192-4.272,0.84-5.953
	c1.536-1.729,3.457-2.329,5.113-3.672c1.296-0.84,1.08-3.24-0.408-3.433c-1.56,0-1.704,1.753-1.776,2.904v0.048H118.5
	c-1.44,0.169-2.472,0.24-3.552,0.12h-0.024v-0.048c-0.384-2.208,0.024-4.225,1.2-5.544c1.272-1.656,5.136-1.704,6.865-1.009
	c1.44,0.744,2.184,2.28,2.352,4.009c0.024,0.672,0.072,1.512,0.048,2.16c-0.288,3.553-4.464,3.528-6.192,5.641
	c-0.12,0.312-0.528,1.271-0.264,1.392c2.136,0.072,3.84-0.048,5.929-0.048c0.264,0.648,0.192,1.514,0.168,2.305
	c0,0.359-0.048,0.695,0.048,1.057c0,0.023-0.024,0.023-0.096,0.023L115.86,48.337z"/>
<path d="M195.032,45.553c-0.12-0.744-0.097-1.488-0.216-2.473c0-0.023,0-0.023,0.023-0.023h0.023
	c0.959,0.071,1.943-0.289,3.119-0.217h0.024l0.022,0.023c0.386,1.152,2.258,2.232,3.218,0.912c0.384-0.647,0.288-1.584-0.384-2.088
	c-0.696-0.504-1.85-0.479-2.641-0.313c-0.385-0.84,0-2.4-0.121-3.313V38.04c1.08-0.385,3.457,0.407,3.338-1.608
	c-0.072-2.16-2.953-1.2-3.457,0.144c-0.504,0.072-3.072,0.048-3.168,0.048v-0.048c0-0.647-0.168-1.536,0.096-2.231
	c1.152-3.865,8.16-3.889,9.793-0.984c0.313,0.504,0.359,1.128,0.336,1.728c0.072,2.713,0.048,5.353-0.049,7.945
	c-0.071,0.937,0,1.92-0.407,2.784c-0.456,1.056-1.224,1.848-2.399,2.231c-1.177,0.359-2.688,0.337-3.912,0.168
	c-0.457-0.071-0.865-0.217-1.32-0.336c-0.672-0.192-1.057-0.553-1.129-0.624C195.368,46.801,195.104,46.2,195.032,45.553z"/>
<path d="M283.697,40.392c0.406-0.072,1.08,0.048,1.464,0.048l-0.146,3.48c-0.504,0.168-1.008-0.023-1.463,0.072
	c0-0.096-0.24,3.84-0.337,4.225c-0.192,0.217-1.247,0.145-3.456,0.168c-0.072-0.072,0.264-4.417,0.264-4.607
	c-0.359-0.098-5.063,0-5.137-0.121c-0.07-0.215-0.312-1.561-0.238-3.479c0.623-0.864,1.631-3.313,5.231-8.688
	c0-0.024,0-0.024,0.022-0.024c0.289,0,3.266-0.12,3.77-0.048h0.049c0,0.096-0.265,8.305-0.168,9.001L283.697,40.392z
	 M280.744,35.327c-0.071-0.479-3.12,4.873-3.24,5.112c0,0,2.713,0.097,3.169,0.024L280.744,35.327z"/>
</svg>
